<svg width="1410px" height="286px" viewBox="0 0 1410 286" version="1.1" xmlns="http://www.w3.org/2000/svg" xmlns:xlink="http://www.w3.org/2000/svg">
    <defs>
        <linearGradient x1="13.6865267%" y1="34.6827437%" x2="86.2710699%" y2="56.5065158%" id="linearGradient-1">
            <stop stop-color="#5AF1C8" offset="29%"></stop>
            <stop stop-color="#99FEFF" offset="100%"></stop>
        </linearGradient>
        <linearGradient x1="-0.0291628069%" y1="50.0054202%" x2="100.001553%" y2="50.0054202%" id="linearGradient-2">
            <stop stop-color="#FF3180" offset="63%"></stop>
            <stop stop-color="#FF9AB2" offset="100%"></stop>
        </linearGradient>
    </defs>
    <g id="Main-Logo-on-White" stroke="none" stroke-width="1" fill="none" fill-rule="evenodd">
        <g id="SC-master-colour-gradient-Copy" transform="translate(17.000000, 15.000000)" fill-rule="nonzero">
            <path d="M943.7175,151.47 C943.7175,138.24 953.1225,131.4675 969.615,131.4675 C980.387991,131.447387 991.052216,133.621572 1000.9575,137.8575 L1000.9575,104.985 C989.685185,101.442973 977.963689,99.5335893 966.15,99.315 C930.15,99.315 905.13,119.565 905.13,151.47 C905.13,183.375 930.1725,203.625 966.15,203.625 C977.265,203.625 1007.0325,194.985 1009.26,162.4275 C998.145,168.3225 982.665,171.2925 969.615,171.2925 C953.1225,171.2925 943.7175,164.6775 943.7175,151.47 Z" id="Path" fill="#251F4C"></path>
            <path d="M1258.8525,200.0475 L1223.3475,144.8775 C1230.75,128.25 1244.7,110.52 1257.3225,101.25 C1215.81,91.3275 1194.7725,119.97 1189.035,131.9175 C1187.27537,135.575436 1185.72781,139.331652 1184.4,143.1675 L1184.175,142.56 L1184.3325,142.56 L1184.3325,41.985 C1175.71485,56.673742 1161.77764,67.4851541 1145.4075,72.18 L1145.4075,200.115 C1145.4075,200.115 1166.2425,200.115 1186.7175,200.115 L1185.075,190.4175 L1185.075,150.84 L1191.0825,166.905 L1212.75,200.0475 L1258.8525,200.0475 Z" id="Path" fill="#251F4C"></path>
            <path d="M737.415,177.75 L736.29,185.9625 L736.29,185.9625 L734.5575,200.25 L773.145,200.25 L773.145,102.195 L734.6025,102.195 L734.6025,162.6975 C727.47,167.5575 717.7275,170.865 712.1025,170.865 C704.61,170.865 698.355,167.5575 698.355,156.78 L698.355,102.195 L659.6775,102.195 L659.6775,162.6975 C659.6775,188.0775 671.67,203.3775 695.6775,203.3775 C705.285,203.3775 716.94,199.98 728.82,191.7675" id="Path" fill="#251F4C"></path>
            <path d="M615.3075,171.45 C604.53,171.45 598.095,167.1075 598.095,155.115 L598.095,140.85 L583.245,136.08 L634.5,136.08 L634.5,103.905 L598.095,103.905 L598.095,73.2375 C590.355,86.85 569.9925,102.735 559.5075,102.78 L559.5075,163.125 C559.5075,189.54 575.505,203.625 601.4025,203.625 C615.4875,203.625 637.65,194.04 643.4775,163.2825 C634.902452,168.281117 625.226447,171.08654 615.3075,171.45 Z" id="Path" fill="#251F4C"></path>
            <path d="M391.5,171.45 C380.7225,171.45 374.2875,167.1075 374.2875,155.115 L374.2875,140.85 L359.4375,136.08 L410.6475,136.08 L410.6475,103.905 L374.2875,103.905 L374.2875,73.2375 C366.5475,86.85 349.5375,99.765 335.7,102.78 L335.7,163.125 C335.7,189.54 351.6975,203.625 377.595,203.625 C391.68,203.625 413.8425,194.04 419.67,163.2825 C411.094952,168.281117 401.418947,171.08654 391.5,171.45 L391.5,171.45 Z" id="Path" fill="#251F4C"></path>
            <path d="M1292.85,163.3725 L1369.8675,163.3725 C1373.8275,119.9025 1356.7275,99.3375 1318.41,99.3375 C1285.695,99.3375 1262.16,119.8125 1262.16,151.83 C1262.16,183.8475 1290.96,203.58 1321.83,203.58 C1333.08,203.58 1359.8325,195.165 1368.72,168.345 C1357.47,172.5525 1340.19,174.645 1327.0725,174.645 C1318.68,174.645 1312.5375,172.98 1308.1725,169.9425 M1298.25,141.975 C1299.1725,132.255 1307.07,125.3025 1318.7475,125.3025 C1332.6975,125.3025 1340.73,133.6725 1339.38,141.975 L1298.25,141.975 Z" id="Shape" fill="#251F4C"></path>
            <path d="M503.7975,182.745 L502.785,190.0575 L502.785,190.0575 L501.5475,200.1375 L540.1575,200.1375 L540.1575,140.175 C540.1575,115.425 525.195,99.315 489.0375,99.315 C476.865,99.315 444.825,105.345 436.545,143.64 C452.835,131.0175 469.8225,125.9775 482.1525,125.9775 C492.4125,125.9775 501.5475,132.03 501.5475,140.49 L501.5475,141.75 C450.81,141.75 431.505,159.3 431.505,178.245 C431.505,194.94 444.375,203.6475 460.89,203.6475 C473.112587,203.593297 485.115355,200.393076 495.7425,194.355 M501.5475,171.2025 C493.4925,176.2425 484.4025,179.685 477.135,179.685 C470.88,179.685 467.8425,177.8625 467.8425,173.2275 C467.8425,166.1625 482.58,161.7075 501.5925,161.7075 L501.5475,171.2025 Z" id="Shape" fill="#251F4C"></path>
            <path d="M1087.4025,182.8125 L1086.39,190.1475 L1086.39,190.1475 L1085.175,200.2275 L1123.7625,200.2275 L1123.7625,140.2425 C1123.7625,115.4925 1108.8,99.3825 1072.6425,99.3825 C1060.4925,99.3825 1028.43,105.4125 1020.15,143.73 C1036.44,131.085 1053.4275,126.0675 1065.7575,126.0675 C1076.0175,126.0675 1085.175,132.12 1085.175,140.5575 L1085.175,141.75 C1034.415,141.75 1015.11,159.3225 1015.11,178.2675 C1015.11,194.94 1027.98,203.6475 1044.495,203.6475 C1056.71759,203.593297 1068.72035,200.393076 1079.3475,194.355 M1085.175,171.2025 C1077.0975,176.2425 1068.0075,179.685 1060.74,179.685 C1054.485,179.685 1051.4475,177.8625 1051.4475,173.2275 C1051.4475,166.1625 1066.185,161.73 1085.1975,161.73 L1085.175,171.2025 Z" id="Shape" fill="#251F4C"></path>
            <path d="M843.5025,129.1275 C835.11,128.475 832.5,132.0525 832.995,135.405 C833.3325,137.655 835.245,140.31 845.4375,141.12 C867.3075,142.83 893.385,149.85 893.385,170.505 C893.385,192.015 871.875,204.615 841.7925,203.49 C774.8325,200.97 793.395,148.2525 793.395,148.2525 C793.395,148.2525 809.3925,169.3125 844.83,169.3125 C854.1675,169.3125 854.3925,165.2175 854.1675,162.855 C853.695,157.68 842.4225,157.7475 832.1175,155.835 C825.746937,154.69319 819.521782,152.852053 813.555,150.345 C801.9,145.3725 795.7575,137.655 796.9725,125.595 C798.3675,111.8475 805.725,99.27 844.2225,99.27 C857.068758,99.589757 869.721559,102.473739 881.4375,107.7525 L881.4375,137.25 C865.1925,130.5 843.5025,129.1275 843.5025,129.1275 Z" id="Path" fill="#251F4C"></path>
            <path d="M272.52,129.1275 C264.1275,128.475 261.5175,132.0525 262.0125,135.405 C262.35,137.655 264.2625,140.31 274.455,141.12 C296.325,142.83 322.425,149.85 322.425,170.505 C322.425,192.015 300.8925,204.615 270.81,203.49 C203.85,200.97 222.4125,148.2525 222.4125,148.2525 C222.4125,148.2525 238.41,169.3125 273.8475,169.3125 C283.185,169.3125 283.41,165.2175 283.185,162.855 C282.7125,157.68 271.44,157.7475 261.135,155.835 C254.765194,154.689992 248.540386,152.848958 242.5725,150.345 C230.9175,145.3725 224.775,137.655 225.99,125.595 C227.385,111.8475 234.6075,99.765 273.24,99.765 C286.080768,100.061445 298.75114,102.771073 310.59,107.7525 L310.59,137.25 C294.21,130.5 272.52,129.1275 272.52,129.1275 Z" id="Path" fill="#251F4C"></path>
            <path d="M81,99.1125 L110.0475,108.72 L145.2375,18.495 C147.012591,12.9328495 145.074521,6.85651026 140.406737,3.34933738 C135.738953,-0.157835492 129.363294,-0.328076832 124.515,2.925 L6.3,98.685 C1.95895355,101.613119 -0.337771582,106.756132 0.37931696,111.943073 C1.0964055,117.130013 4.70234567,121.456989 9.675,123.0975 L53.955,137.7225 L63.6525,108 C64.7559255,104.5082 67.2111289,101.60336 70.4702969,99.9336175 C73.7294648,98.2638752 77.5213882,97.9681769 81,99.1125 L81,99.1125 Z" id="Path" fill="url(#linearGradient-1)"></path>
            <path d="M152.6625,122.7825 L110.07,108.72 L98.685,137.97 C97.5771974,141.462947 95.1164856,144.366647 91.8525776,146.032424 C88.5886696,147.698201 84.7935381,147.98725 81.315,146.835 L53.955,137.835 L22.95,232.7175 C21.1636286,238.286611 23.1026481,244.375965 27.7803098,247.886748 C32.4579714,251.397531 38.8465668,251.558404 43.695,248.2875 L156.0375,147.195 C160.378546,144.266881 162.675272,139.123868 161.958183,133.936927 C161.241094,128.749987 157.635154,124.423011 152.6625,122.7825 Z" id="Path" fill="url(#linearGradient-2)"></path>
            <path d="M98.685,137.9025 L110.07,108.6525 L81,99.1125 C77.5244281,97.9593126 73.7318746,98.2452558 70.4685019,99.9065323 C67.2051292,101.567809 64.7424801,104.466185 63.63,107.955 L54,137.7225 L81.36,146.7225 C84.8268199,147.862683 88.6052487,147.572778 91.8575494,145.917061 C95.1098501,144.261345 97.5672842,141.376629 98.685,137.9025 Z" id="Path" fill="#FFFFFF" style="mix-blend-mode: lighten;"></path>
            <polygon id="Path" fill="#251F4C" points="53.8875 137.7225 78.8625 146.0475 52.605 141.8175"></polygon>
        </g>
    </g>
</svg>
